<svg width="133" height="54" viewBox="0 0 133 54" fill="none" xmlns="http://www.w3.org/2000/svg">
<g filter="url(#filter0_d_0_132)">
<path d="M53 17.1818V22.8636H38.625V17.1818H53ZM41.4091 11.9545H49.25V31.983C49.25 32.286 49.3021 32.5417 49.4062 32.75C49.5104 32.9489 49.6714 33.1004 49.8892 33.2045C50.107 33.2992 50.3864 33.3466 50.7273 33.3466C50.964 33.3466 51.2386 33.3182 51.5511 33.2614C51.8731 33.2045 52.1098 33.1572 52.2614 33.1193L53.3977 38.6307C53.0473 38.7348 52.5455 38.8627 51.892 39.0142C51.2481 39.1657 50.4811 39.2652 49.5909 39.3125C47.7917 39.4072 46.2813 39.2225 45.0597 38.7585C43.8381 38.285 42.9195 37.5417 42.304 36.5284C41.6884 35.5152 41.3902 34.2462 41.4091 32.7216V11.9545ZM66.4766 39.3977C64.1091 39.3977 62.0826 38.929 60.397 37.9915C58.7114 37.0445 57.4188 35.7282 56.5192 34.0426C55.6196 32.3475 55.1697 30.3826 55.1697 28.1477C55.1697 25.9129 55.6196 23.9527 56.5192 22.267C57.4188 20.572 58.7114 19.2557 60.397 18.3182C62.0826 17.3712 64.1091 16.8977 66.4766 16.8977C68.844 16.8977 70.8705 17.3712 72.5561 18.3182C74.2417 19.2557 75.5343 20.572 76.4339 22.267C77.3336 23.9527 77.7834 25.9129 77.7834 28.1477C77.7834 30.3826 77.3336 32.3475 76.4339 34.0426C75.5343 35.7282 74.2417 37.0445 72.5561 37.9915C70.8705 38.929 68.844 39.3977 66.4766 39.3977ZM66.5334 33.6023C67.1963 33.6023 67.7692 33.3797 68.2521 32.9347C68.7351 32.4896 69.1091 31.8551 69.3743 31.0312C69.6394 30.2074 69.772 29.2273 69.772 28.0909C69.772 26.9451 69.6394 25.965 69.3743 25.1506C69.1091 24.3267 68.7351 23.6922 68.2521 23.2472C67.7692 22.8021 67.1963 22.5795 66.5334 22.5795C65.8326 22.5795 65.2313 22.8021 64.7294 23.2472C64.2275 23.6922 63.844 24.3267 63.5788 25.1506C63.3137 25.965 63.1811 26.9451 63.1811 28.0909C63.1811 29.2273 63.3137 30.2074 63.5788 31.0312C63.844 31.8551 64.2275 32.4896 64.7294 32.9347C65.2313 33.3797 65.8326 33.6023 66.5334 33.6023Z" fill="#4EA8DE"/>
<path d="M88.8629 39.2841C87.3099 39.2841 85.88 38.8769 84.5732 38.0625C83.2758 37.2481 82.2341 36.0123 81.4482 34.3551C80.6716 32.6979 80.2834 30.6098 80.2834 28.0909C80.2834 25.4583 80.6906 23.3182 81.505 21.6705C82.3288 20.0227 83.3894 18.8153 84.6868 18.0483C85.9936 17.2812 87.3667 16.8977 88.8061 16.8977C89.8857 16.8977 90.8326 17.0871 91.647 17.4659C92.4614 17.8352 93.1432 18.3324 93.6925 18.9574C94.2417 19.5729 94.6584 20.25 94.9425 20.9886H95.0561V9.90909H102.897V39H95.1129V35.4205H94.9425C94.6394 36.1591 94.2038 36.822 93.6357 37.4091C93.0769 37.9867 92.3951 38.446 91.5902 38.7869C90.7947 39.1184 89.8857 39.2841 88.8629 39.2841ZM91.7607 33.2614C92.4804 33.2614 93.0959 33.053 93.6072 32.6364C94.1281 32.2102 94.5258 31.6136 94.8004 30.8466C95.0845 30.0701 95.2266 29.1515 95.2266 28.0909C95.2266 27.0114 95.0845 26.0881 94.8004 25.321C94.5258 24.5445 94.1281 23.9527 93.6072 23.5455C93.0959 23.1288 92.4804 22.9205 91.7607 22.9205C91.041 22.9205 90.4254 23.1288 89.9141 23.5455C89.4122 23.9527 89.0239 24.5445 88.7493 25.321C88.4841 26.0881 88.3516 27.0114 88.3516 28.0909C88.3516 29.1705 88.4841 30.0985 88.7493 30.875C89.0239 31.642 89.4122 32.2339 89.9141 32.6506C90.4254 33.0578 91.041 33.2614 91.7607 33.2614ZM117.258 39.3977C114.89 39.3977 112.864 38.929 111.178 37.9915C109.493 37.0445 108.2 35.7282 107.3 34.0426C106.401 32.3475 105.951 30.3826 105.951 28.1477C105.951 25.9129 106.401 23.9527 107.3 22.267C108.2 20.572 109.493 19.2557 111.178 18.3182C112.864 17.3712 114.89 16.8977 117.258 16.8977C119.625 16.8977 121.652 17.3712 123.337 18.3182C125.023 19.2557 126.316 20.572 127.215 22.267C128.115 23.9527 128.565 25.9129 128.565 28.1477C128.565 30.3826 128.115 32.3475 127.215 34.0426C126.316 35.7282 125.023 37.0445 123.337 37.9915C121.652 38.929 119.625 39.3977 117.258 39.3977ZM117.315 33.6023C117.978 33.6023 118.55 33.3797 119.033 32.9347C119.516 32.4896 119.89 31.8551 120.156 31.0312C120.421 30.2074 120.553 29.2273 120.553 28.0909C120.553 26.9451 120.421 25.965 120.156 25.1506C119.89 24.3267 119.516 23.6922 119.033 23.2472C118.55 22.8021 117.978 22.5795 117.315 22.5795C116.614 22.5795 116.013 22.8021 115.511 23.2472C115.009 23.6922 114.625 24.3267 114.36 25.1506C114.095 25.965 113.962 26.9451 113.962 28.0909C113.962 29.2273 114.095 30.2074 114.36 31.0312C114.625 31.8551 115.009 32.4896 115.511 32.9347C116.013 33.3797 116.614 33.6023 117.315 33.6023Z" fill="#5E60CE"/>
<g clip-path="url(#clip0_0_132)">
<path d="M15.0215 12.933C18.1472 16.9011 19.8157 21.7944 19.7552 26.8155V28.0141L20.7864 28.6416C22.1189 29.4482 23.1126 30.6993 23.5866 32.1669C23.1705 31.8605 22.7351 31.5803 22.2832 31.3278L19.5332 29.7838L19.039 32.9001C18.9962 33.1755 18.9389 33.4485 18.8672 33.718H11.1614C11.0469 33.3655 10.9538 33.0129 10.8678 32.6463L10.2448 29.8261L7.70962 31.2362C7.28609 31.473 6.87717 31.7344 6.48501 32.0188C6.96818 30.5682 7.94117 29.3242 9.24218 28.4935L10.2233 27.866V26.7521C10.241 21.7513 11.9296 16.8952 15.0286 12.933H15.0215ZM15.0286 10C14.8679 10.0004 14.7128 10.058 14.5918 10.1622L14.5273 10.2186C10.3977 14.7656 8.1046 20.6454 8.08202 26.745C6.32961 27.8643 5.03244 29.5543 4.4172 31.5197C3.80196 33.485 3.90777 35.6007 4.71613 37.4971C5.5677 35.6455 6.99125 34.1058 8.78384 33.0975C8.96362 33.8642 9.20304 34.6161 9.49999 35.3467C9.53765 35.4871 9.62112 35.6114 9.73757 35.7006C9.85402 35.7898 9.997 35.8388 10.1445 35.8402H20.0846C20.2851 35.8402 20.4857 35.6498 20.5859 35.3537C20.8757 34.6592 21.0778 33.9322 21.1875 33.1892C22.9835 34.1932 24.4082 35.7342 25.2552 37.5887C26.1123 35.7017 26.245 33.5727 25.6287 31.5967C25.0123 29.6206 23.6888 27.9319 21.9036 26.8437C21.9745 20.7082 19.6935 14.7718 15.5156 10.2186C15.4534 10.1501 15.3773 10.0952 15.2921 10.0576C15.207 10.0199 15.1148 10.0003 15.0215 10H15.0286Z" fill="#4EA8DE"/>
<path d="M15.0214 26.1598C14.4714 26.1598 13.9336 25.9995 13.476 25.699C13.0183 25.3986 12.6613 24.9715 12.4498 24.4716C12.2383 23.9716 12.1819 23.4213 12.2877 22.8898C12.3935 22.3584 12.6567 21.8697 13.0441 21.4853C13.4316 21.1009 13.9259 20.838 14.4649 20.7298C15.0039 20.6216 15.5633 20.6729 16.0727 20.8773C16.5821 21.0816 17.0187 21.4298 17.3273 21.8781C17.636 22.3263 17.803 22.8545 17.8073 23.396C17.8158 23.7469 17.7541 24.0961 17.6255 24.4235C17.497 24.751 17.3042 25.0503 17.0581 25.3043C16.812 25.5583 16.5175 25.7622 16.1914 25.9041C15.8653 26.0461 15.514 26.1234 15.1575 26.1316C15.1124 26.1387 15.0665 26.1387 15.0214 26.1316V26.1598Z" fill="#4EA8DE"/>
<path d="M18.8958 37.5958C18.7166 37.5901 18.5381 37.6198 18.3707 37.683C18.2033 37.7462 18.0504 37.8416 17.921 37.9638C17.7916 38.086 17.6882 38.2323 17.6171 38.3943C17.5459 38.5563 17.5083 38.7307 17.5065 38.9072V43.067C17.5065 43.4297 17.6528 43.7776 17.9134 44.0342C18.1739 44.2907 18.5273 44.4348 18.8958 44.4348C19.2643 44.4348 19.6176 44.2907 19.8782 44.0342C20.1387 43.7776 20.2851 43.4297 20.2851 43.067V38.9636C20.2908 38.7877 20.261 38.6126 20.1972 38.4482C20.1335 38.2839 20.0371 38.1337 19.9138 38.0064C19.7905 37.879 19.6427 37.7772 19.479 37.7067C19.3152 37.6362 19.1389 37.5985 18.9602 37.5958H18.8958Z" fill="#5E60CE"/>
<path d="M11.1614 37.5958C10.9792 37.5863 10.7969 37.613 10.6253 37.6743C10.4538 37.7356 10.2965 37.8302 10.1629 37.9526C10.0293 38.0749 9.922 38.2225 9.84748 38.3865C9.77296 38.5505 9.73271 38.7275 9.72913 38.9072V43.067C9.72913 43.4297 9.8755 43.7777 10.136 44.0342C10.3966 44.2907 10.75 44.4348 11.1184 44.4348C11.4869 44.4348 11.8403 44.2907 12.1008 44.0342C12.3614 43.7777 12.5078 43.4297 12.5078 43.067V38.9636C12.5135 38.7877 12.4836 38.6126 12.4199 38.4482C12.3561 38.2839 12.2598 38.1337 12.1365 38.0064C12.0131 37.879 11.8653 37.7772 11.7016 37.7067C11.5379 37.6362 11.3616 37.5985 11.1829 37.5958H11.1614Z" fill="#5E60CE"/>
<path d="M14.9212 37.5958C14.7425 37.592 14.5648 37.623 14.3982 37.6869C14.2317 37.7507 14.0796 37.8463 13.9506 37.9681C13.8215 38.0899 13.7182 38.2355 13.6463 38.3966C13.5745 38.5577 13.5356 38.7312 13.5319 38.9072V44.6392C13.5319 45.002 13.6782 45.3499 13.9388 45.6064C14.1993 45.8629 14.5527 46.007 14.9212 46.007C15.2897 46.007 15.643 45.8629 15.9036 45.6064C16.1641 45.3499 16.3105 45.002 16.3105 44.6392V38.9988C16.3162 38.823 16.2863 38.6478 16.2226 38.4835C16.1588 38.3191 16.0625 38.1689 15.9392 38.0416C15.8159 37.9143 15.6681 37.8124 15.5043 37.7419C15.3406 37.6714 15.1643 37.6337 14.9856 37.631L14.9212 37.5958Z" fill="#5E60CE"/>
</g>
</g>
<defs>
<filter id="filter0_d_0_132" x="0" y="9.90909" width="132.565" height="44.0909" filterUnits="userSpaceOnUse" color-interpolation-filters="sRGB">
<feFlood flood-opacity="0" result="BackgroundImageFix"/>
<feColorMatrix in="SourceAlpha" type="matrix" values="0 0 0 0 0 0 0 0 0 0 0 0 0 0 0 0 0 0 127 0" result="hardAlpha"/>
<feOffset dy="4"/>
<feGaussianBlur stdDeviation="2"/>
<feComposite in2="hardAlpha" operator="out"/>
<feColorMatrix type="matrix" values="0 0 0 0 0 0 0 0 0 0 0 0 0 0 0 0 0 0 0.25 0"/>
<feBlend mode="normal" in2="BackgroundImageFix" result="effect1_dropShadow_0_132"/>
<feBlend mode="normal" in="SourceGraphic" in2="effect1_dropShadow_0_132" result="shape"/>
</filter>
<clipPath id="clip0_0_132">
<rect width="22" height="36" fill="white" transform="translate(4 10)"/>
</clipPath>
</defs>
</svg>
